<svg width="20" height="20" viewBox="0 0 20 20" fill="none" xmlns="http://www.w3.org/2000/svg">
<path d="M1.17188 9.99976C1.17188 8.34152 1.63406 6.7257 2.50848 5.32699C3.11988 4.34898 3.91437 3.50437 4.84223 2.83547L4.49617 4.33457L5.63797 4.59816L6.42883 1.1727L3.00332 0.381836L2.73973 1.52363L4.19148 1.85883C3.12582 2.62016 2.21465 3.58625 1.51477 4.70574C0.523789 6.29098 0 8.1216 0 9.99976C0 12.6709 1.0402 15.1821 2.92891 17.0709C4.8177 18.9596 7.32891 19.9998 10 19.9998V18.8279C7.64191 18.8279 5.425 17.9096 3.75758 16.2422C2.09016 14.5748 1.17188 12.3579 1.17188 9.99976Z" fill="#4B5563"/>
<path d="M18.8281 10C18.8281 11.6582 18.3659 13.2741 17.4915 14.6728C16.8801 15.6508 16.0856 16.4954 15.1578 17.1643L15.5038 15.6652L14.362 15.4016L13.5712 18.8271L16.9967 19.6179L17.2603 18.4761L15.8085 18.1409C16.8742 17.3796 17.7854 16.4135 18.4852 15.294C19.4762 13.7088 20 11.8782 20 10C20 7.32891 18.9598 4.8177 17.0711 2.92891C15.1823 1.0402 12.6711 0 10 0V1.17188C12.3581 1.17188 14.575 2.09016 16.2424 3.75758C17.9098 5.425 18.8281 7.64191 18.8281 10Z" fill="#4B5563"/>
<path d="M13.8464 10.4718C13.8464 9.92852 13.4983 9.44637 12.9826 9.27543L12.4434 9.09668C11.9306 9.5502 11.2913 9.86363 10.5859 9.9766V13.2605H9.41401V9.9766C8.70858 9.86363 8.06932 9.5502 7.55651 9.09668L7.01729 9.27543C6.50159 9.44637 6.1535 9.92852 6.1535 10.4718V14.4324H13.8464V10.4718H13.8464Z" fill="#4B5563"/>
<path d="M10.5788 8.77927C11.9334 8.45907 12.772 7.10137 12.4518 5.74677C12.1316 4.39217 10.7739 3.55363 9.41927 3.87383C8.06467 4.19404 7.22613 5.55173 7.54633 6.90633C7.86654 8.26093 9.22423 9.09948 10.5788 8.77927Z" fill="#4B5563"/>
</svg>
