<svg width="19" height="20" viewBox="0 0 19 20" fill="none" xmlns="http://www.w3.org/2000/svg">
<path d="M7.12498 2.0835C5.05081 2.0835 3.36456 3.76975 3.36456 5.84391C3.36456 7.8785 4.95581 9.52516 7.02998 9.59641C7.09331 9.5885 7.15665 9.5885 7.20415 9.59641C7.21998 9.59641 7.2279 9.59641 7.24373 9.59641C7.25165 9.59641 7.25165 9.59641 7.25956 9.59641C9.28623 9.52516 10.8775 7.8785 10.8854 5.84391C10.8854 3.76975 9.19915 2.0835 7.12498 2.0835Z" fill="#4B5563"/>
<path d="M11.1467 11.702C8.93795 10.2295 5.33586 10.2295 3.11128 11.702C2.10586 12.3749 1.5517 13.2854 1.5517 14.2591C1.5517 15.2329 2.10586 16.1354 3.10336 16.8004C4.2117 17.5445 5.66836 17.9166 7.12503 17.9166C8.5817 17.9166 10.0384 17.5445 11.1467 16.8004C12.1442 16.1274 12.6984 15.2249 12.6984 14.2433C12.6904 13.2695 12.1442 12.367 11.1467 11.702Z" fill="#4B5563"/>
<path d="M15.8254 6.31083C15.9521 7.84666 14.8596 9.1925 13.3475 9.37458C13.3396 9.37458 13.3396 9.37458 13.3317 9.37458H13.3079C13.2604 9.37458 13.2129 9.37458 13.1733 9.39041C12.4054 9.43 11.7008 9.18458 11.1704 8.73333C11.9858 8.005 12.4529 6.9125 12.3579 5.725C12.3025 5.08375 12.0808 4.49791 11.7483 3.99916C12.0492 3.84875 12.3975 3.75375 12.7537 3.72208C14.3054 3.5875 15.6908 4.74333 15.8254 6.31083Z" fill="#4B5563"/>
<path d="M17.4088 13.6337C17.3454 14.4017 16.8546 15.0667 16.0313 15.5179C15.2396 15.9533 14.2421 16.1592 13.2525 16.1354C13.8225 15.6208 14.155 14.9796 14.2184 14.2987C14.2975 13.3171 13.8304 12.375 12.8963 11.6229C12.3659 11.2033 11.7484 10.8708 11.0754 10.6254C12.825 10.1187 15.0259 10.4592 16.3796 11.5517C17.1079 12.1375 17.48 12.8737 17.4088 13.6337Z" fill="#4B5563"/>
</svg>
