<svg width="17" height="18" viewBox="0 0 17 18" fill="none" xmlns="http://www.w3.org/2000/svg">
<rect x="1" y="2.77979" width="15" height="14" rx="2" fill="#4B5563"/>
<path d="M15.1556 14.7798V4.63291C15.1556 3.92471 14.5795 3.34854 13.8713 3.34854H13.0364V3.99072C13.0364 4.3454 12.7489 4.63291 12.3942 4.63291C12.0395 4.63291 11.752 4.3454 11.752 3.99072V3.34854H8.83008V3.99072C8.83008 4.3454 8.54257 4.63291 8.18789 4.63291C7.83321 4.63291 7.5457 4.3454 7.5457 3.99072V3.34854H4.65586V3.99072C4.65586 4.3454 4.36835 4.63291 4.01367 4.63291C3.65899 4.63291 3.37148 4.3454 3.37148 3.99072V3.34854H2.56875C1.86055 3.34854 1.28438 3.92471 1.28438 4.63291V14.651C1.28438 15.3592 1.86055 15.9354 2.56875 15.9354H13.8713C14.5795 15.9354 15.1556 15.3592 15.1556 14.651C15.1556 14.2964 15.4431 14.0088 15.7978 14.0088C16.1525 14.0088 16.44 14.2964 16.44 14.651C16.44 16.0674 15.2877 17.2198 13.8713 17.2198H2.56875C1.15234 17.2198 0 16.0674 0 14.651V4.63291C0 3.2165 1.15234 2.06416 2.56875 2.06416H3.37148V1.42197C3.37148 1.06729 3.65899 0.779785 4.01367 0.779785C4.36835 0.779785 4.65586 1.06729 4.65586 1.42197V2.06416H7.5457V1.42197C7.5457 1.06729 7.83321 0.779785 8.18789 0.779785C8.54257 0.779785 8.83008 1.06729 8.83008 1.42197V2.06416H11.752V1.42197C11.752 1.06729 12.0395 0.779785 12.3942 0.779785C12.7489 0.779785 13.0364 1.06729 13.0364 1.42197V2.06416H13.8713C15.2877 2.06416 16.44 3.2165 16.44 4.63291V14.7798C16.44 15.1345 16.1525 15.422 15.7978 15.422C15.4431 15.422 15.1556 15.1345 15.1556 14.7798ZM7.32986 13.463C7.45955 13.463 7.58231 13.4039 7.6631 13.3024L9.55543 10.9263H10.5319C10.8943 10.9263 11.2704 10.6462 11.2704 10.2838C11.2704 9.92139 10.8943 9.64197 10.5319 9.64197H9.5657L7.663 7.26543C7.58224 7.16454 7.46004 7.10581 7.33083 7.10575C7.01693 7.10556 6.81072 7.43352 6.94693 7.71634L7.87428 9.64197H6.31286L5.74633 9.02072C5.69771 8.96742 5.62903 8.93692 5.55688 8.93663C5.41409 8.93605 5.29801 9.05164 5.29801 9.19443V11.3428C5.29801 11.4852 5.41345 11.6006 5.55582 11.6006H5.58626C5.65735 11.6006 5.72529 11.5713 5.774 11.5195L6.33226 10.9263H7.8721L6.94609 12.8527C6.81017 13.1354 7.01622 13.463 7.32986 13.463Z" fill="#4B5563"/>
<path d="M7.18627 11.6462C7.36417 11.8189 7.60528 11.9161 7.85693 11.9161C8.10834 11.9161 8.34945 11.8192 8.52735 11.6462L11.913 8.35406C12.2835 7.99381 12.2835 7.41006 11.913 7.0498C11.5428 6.68978 10.9422 6.68978 10.5719 7.0498L7.85693 9.68978L6.61901 8.48606C6.24852 8.12604 5.64818 8.12604 5.27769 8.48606C4.90744 8.84608 4.90744 9.43007 5.27769 9.79033L7.18627 11.6462Z" fill="white"/>
</svg>
