<svg width="32" height="32" viewBox="0 0 32 32" fill="none" xmlns="http://www.w3.org/2000/svg">
<path d="M21.3339 27.2344V24.5677C21.3339 23.1532 20.772 21.7967 19.7718 20.7965C18.7716 19.7963 17.4151 19.2344 16.0006 19.2344H8.00057C6.58608 19.2344 5.22953 19.7963 4.22933 20.7965C3.22914 21.7967 2.66724 23.1532 2.66724 24.5677V27.2344" stroke="#4B5563" stroke-width="2" stroke-linecap="round" stroke-linejoin="round"/>
<path d="M12.0006 13.901C14.9461 13.901 17.3339 11.5132 17.3339 8.56771C17.3339 5.62219 14.9461 3.23438 12.0006 3.23438C9.05505 3.23438 6.66724 5.62219 6.66724 8.56771C6.66724 11.5132 9.05505 13.901 12.0006 13.901Z" stroke="#4B5563" stroke-width="2" stroke-linecap="round" stroke-linejoin="round"/>
<path d="M22.6672 9.90137L29.3339 16.568" stroke="#4B5563" stroke-width="2" stroke-linecap="round" stroke-linejoin="round"/>
<path d="M29.3339 9.90137L22.6672 16.568" stroke="#4B5563" stroke-width="2" stroke-linecap="round" stroke-linejoin="round"/>
</svg>
