<svg width="17" height="18" viewBox="0 0 17 18" fill="none" xmlns="http://www.w3.org/2000/svg">
<rect x="1" y="2.77979" width="15" height="14" rx="2" fill="#4B5563"/>
<path d="M15.1556 14.7798V4.63291C15.1556 3.92471 14.5795 3.34854 13.8713 3.34854H13.0364V3.99072C13.0364 4.3454 12.7489 4.63291 12.3942 4.63291C12.0395 4.63291 11.752 4.3454 11.752 3.99072V3.34854H8.83008V3.99072C8.83008 4.3454 8.54257 4.63291 8.18789 4.63291C7.83321 4.63291 7.5457 4.3454 7.5457 3.99072V3.34854H4.65586V3.99072C4.65586 4.3454 4.36835 4.63291 4.01367 4.63291C3.65899 4.63291 3.37148 4.3454 3.37148 3.99072V3.34854H2.56875C1.86055 3.34854 1.28438 3.92471 1.28438 4.63291V14.651C1.28438 15.3592 1.86055 15.9354 2.56875 15.9354H13.8713C14.5795 15.9354 15.1556 15.3592 15.1556 14.651C15.1556 14.2964 15.4431 14.0088 15.7978 14.0088C16.1525 14.0088 16.44 14.2964 16.44 14.651C16.44 16.0674 15.2877 17.2198 13.8713 17.2198H2.56875C1.15234 17.2198 0 16.0674 0 14.651V4.63291C0 3.2165 1.15234 2.06416 2.56875 2.06416H3.37148V1.42197C3.37148 1.06729 3.65899 0.779785 4.01367 0.779785C4.36835 0.779785 4.65586 1.06729 4.65586 1.42197V2.06416H7.5457V1.42197C7.5457 1.06729 7.83321 0.779785 8.18789 0.779785C8.54257 0.779785 8.83008 1.06729 8.83008 1.42197V2.06416H11.752V1.42197C11.752 1.06729 12.0395 0.779785 12.3942 0.779785C12.7489 0.779785 13.0364 1.06729 13.0364 1.42197V2.06416H13.8713C15.2877 2.06416 16.44 3.2165 16.44 4.63291V14.7798C16.44 15.1345 16.1525 15.422 15.7978 15.422C15.4431 15.422 15.1556 15.1345 15.1556 14.7798ZM7.32986 13.463C7.45955 13.463 7.58231 13.4039 7.6631 13.3024L9.55543 10.9263H10.5319C10.8943 10.9263 11.2704 10.6462 11.2704 10.2838C11.2704 9.92139 10.8943 9.64197 10.5319 9.64197H9.5657L7.663 7.26543C7.58224 7.16454 7.46004 7.10581 7.33083 7.10575C7.01693 7.10556 6.81072 7.43352 6.94693 7.71634L7.87428 9.64197H6.31286L5.74633 9.02072C5.69771 8.96742 5.62903 8.93692 5.55688 8.93663C5.41409 8.93605 5.29801 9.05164 5.29801 9.19443V11.3428C5.29801 11.4852 5.41345 11.6006 5.55582 11.6006H5.58626C5.65735 11.6006 5.72529 11.5713 5.774 11.5195L6.33226 10.9263H7.8721L6.94609 12.8527C6.81017 13.1354 7.01622 13.463 7.32986 13.463Z" fill="#4B5563"/>
<path d="M12.055 8.98115C12.0442 8.96612 11.7858 8.61051 11.3287 8.5169C10.9144 8.43206 9.96948 8.42725 9.9295 8.4271C9.8645 8.42687 9.80453 8.42206 9.77615 8.4184C9.74876 8.39605 9.69314 8.34142 9.65645 8.2961L7.80235 6.00576C7.7623 5.95624 7.68066 5.86294 7.62878 5.82723C7.53998 5.76589 7.31231 5.78084 7.28668 5.78275L7.23625 5.78649C7.16751 5.7916 7.0433 5.80534 6.9841 5.84005C6.949 5.86057 6.84234 5.92313 6.94076 6.22678C6.94076 6.22678 7.6474 8.40642 7.65022 8.41604C7.63969 8.41665 6.63376 8.41703 6.63376 8.41703C6.5673 8.41703 6.50612 8.41237 6.47774 8.40886C6.44981 8.3875 6.39168 8.33341 6.35368 8.2887L5.69977 7.51935C5.69511 7.51394 5.58624 7.38637 5.51742 7.34449C5.42526 7.28849 5.24818 7.3171 5.24643 7.3174C5.19592 7.32686 5.12482 7.3509 5.0798 7.38325C4.99863 7.44169 4.98482 7.56971 5.03891 7.76372C5.18577 8.29023 5.39528 9.07071 5.41077 9.19019C5.39528 9.30967 5.1857 10.0902 5.03891 10.6167C5.02746 10.6578 4.99084 10.7978 5.00214 10.8705C5.02533 11.0199 5.23743 11.0613 5.24643 11.063C5.2993 11.0729 5.37125 11.076 5.4174 11.0705C5.52795 11.0572 5.672 10.8936 5.69977 10.861L6.35368 10.0916C6.39625 10.0416 6.43928 9.99837 6.45996 9.97953C6.49444 9.97236 6.57394 9.96335 6.63376 9.96335C6.63376 9.96335 7.63992 9.96351 7.64984 9.96381C7.64717 9.97403 6.94084 12.1536 6.94084 12.1536C6.91963 12.2191 6.88537 12.339 6.89476 12.4066C6.90986 12.5152 7.02476 12.5782 7.23633 12.5939L7.28668 12.5976C7.31872 12.6 7.36603 12.6024 7.41295 12.6024C7.45926 12.6024 7.50511 12.6001 7.5357 12.5935C7.64114 12.5708 7.78625 12.3946 7.80243 12.3746L9.65652 10.0843C9.69742 10.0338 9.73877 9.9899 9.75929 9.97007C9.79377 9.96267 9.87121 9.95351 9.9295 9.95328C9.96948 9.95313 10.9145 9.94832 11.3288 9.86348C11.7859 9.7698 12.0443 9.41427 12.055 9.39916C12.1401 9.27999 12.1401 9.10032 12.055 8.98115Z" fill="white"/>
</svg>
