<svg width="24" height="24" viewBox="0 0 24 24" fill="none" xmlns="http://www.w3.org/2000/svg">
<path d="M12 2.25C14.6234 2.25 16.75 4.37665 16.75 7V7.07031C18.6006 7.42138 20 9.04722 20 11V17C20 19.2091 18.2091 21 16 21H8C5.79086 21 4 19.2091 4 17V11C4 9.04722 5.39936 7.42138 7.25 7.07031V7C7.25 4.37665 9.37665 2.25 12 2.25ZM12 12C10.8954 12 10 12.8954 10 14C10 15.1046 10.8954 16 12 16C13.1046 16 14 15.1046 14 14C14 12.8954 13.1046 12 12 12ZM12 3.75C10.2051 3.75 8.75 5.20507 8.75 7H15.25C15.25 5.20507 13.7949 3.75 12 3.75Z" fill="#7152F3"/>
</svg>
