<svg xmlns="http://www.w3.org/2000/svg" width="21" height="14" viewBox="0 0 21 14" fill="none">
<path d="M5 8C7.76142 8 10 9.34315 10 11C10 12.6569 7.76142 14 5 14C2.23858 14 0 12.6569 0 11C0 9.34315 2.23858 8 5 8ZM20 11.25C20.4142 11.25 20.75 11.5858 20.75 12C20.75 12.4142 20.4142 12.75 20 12.75H14C13.5858 12.75 13.25 12.4142 13.25 12C13.25 11.5858 13.5858 11.25 14 11.25H20ZM20 6.25C20.4142 6.25 20.75 6.58579 20.75 7C20.75 7.41421 20.4142 7.75 20 7.75H12C11.5858 7.75 11.25 7.41421 11.25 7C11.25 6.58579 11.5858 6.25 12 6.25H20ZM5 0C6.65685 0 8 1.34315 8 3C8 4.65685 6.65685 6 5 6C3.34315 6 2 4.65685 2 3C2 1.34315 3.34315 0 5 0ZM20 1.25C20.4142 1.25 20.75 1.58579 20.75 2C20.75 2.41421 20.4142 2.75 20 2.75H12C11.5858 2.75 11.25 2.41421 11.25 2C11.25 1.58579 11.5858 1.25 12 1.25H20Z" fill="#2563eb"/>
</svg>