<svg width="32" height="32" viewBox="0 0 32 32" fill="none" xmlns="http://www.w3.org/2000/svg">
<path d="M28.9729 23.2343L18.3062 4.56768C18.0736 4.15729 17.7363 3.81593 17.3288 3.57844C16.9212 3.34095 16.4579 3.21582 15.9862 3.21582C15.5145 3.21582 15.0512 3.34095 14.6436 3.57844C14.2361 3.81593 13.8988 4.15729 13.6662 4.56768L2.99954 23.2343C2.76445 23.6415 2.64118 24.1036 2.64222 24.5737C2.64326 25.0438 2.76858 25.5053 3.00547 25.9114C3.24236 26.3175 3.5824 26.6538 3.99113 26.8861C4.39986 27.1184 4.86275 27.2386 5.33287 27.2343H26.6662C27.1341 27.2339 27.5936 27.1103 27.9986 26.8761C28.4036 26.6418 28.7398 26.3051 28.9736 25.8998C29.2073 25.4945 29.3303 25.0349 29.3301 24.567C29.33 24.0991 29.2068 23.6395 28.9729 23.2343Z" stroke="#E7000B" stroke-width="2" stroke-linecap="round" stroke-linejoin="round"/>
<path d="M16 11.2344V16.5677" stroke="#E7000B" stroke-width="2" stroke-linecap="round" stroke-linejoin="round"/>
<path d="M16 21.9014H16.0133" stroke="#E7000B" stroke-width="2" stroke-linecap="round" stroke-linejoin="round"/>
</svg>
