<svg xmlns="http://www.w3.org/2000/svg" width="16" height="16" viewBox="0 0 16 16" fill="none">
<path d="M8 2.8125C5.13959 2.8125 2.8125 5.13959 2.8125 8C2.8125 10.8604 5.13959 13.1875 8 13.1875C10.8604 13.1875 13.1875 10.8604 13.1875 8C13.1875 5.13959 10.8604 2.8125 8 2.8125ZM9.394 6.3225H9.86472C10.1236 6.3225 10.3335 6.53238 10.3335 6.79125C10.3335 7.05013 10.1236 7.26 9.86472 7.26H9.4C9.19834 8.28944 8.32503 9.08125 7.25684 9.15875L9.28919 11.1911C9.47225 11.3742 9.47225 11.6709 9.28919 11.854C9.10616 12.0371 8.80934 12.0371 8.62628 11.854L5.79994 9.02769C5.50556 8.73337 5.71422 8.2275 6.13137 8.2275H7.0845C7.70962 8.2275 8.24141 7.82181 8.43147 7.26003H6.12238C5.8635 7.26003 5.65363 7.05016 5.65363 6.79128C5.65363 6.53241 5.8635 6.32253 6.12238 6.32253H8.42175C8.24191 5.82628 7.79328 5.45806 7.25269 5.39403H6.14813C5.90353 5.39403 5.66266 5.19403 5.66266 4.915C5.66266 4.65612 5.87253 4.44625 6.13141 4.44625C6.98016 4.44919 9.0315 4.45441 9.87756 4.45653C10.1364 4.45653 10.3463 4.66641 10.3463 4.92528C10.3463 5.18416 10.1364 5.39403 9.87756 5.39403H8.97391C9.17663 5.66462 9.32247 5.98006 9.394 6.3225Z" fill="#2563eb"/>
<path d="M8 0C3.57863 0 0 3.57803 0 8C0 12.4214 3.57803 16 8 16C12.4214 16 16 12.422 16 8C16 3.57863 12.422 0 8 0ZM8 14.125C4.62266 14.125 1.875 11.3773 1.875 8C1.875 4.62266 4.62266 1.875 8 1.875C11.3773 1.875 14.125 4.62266 14.125 8C14.125 11.3773 11.3773 14.125 8 14.125Z" fill="#2563eb"/>
</svg>