<svg xmlns="http://www.w3.org/2000/svg" width="16" height="12" viewBox="0 0 16 12" fill="none">
<path d="M15.5 10C15.75 10 16 10.25 16 10.5V11.5C16 11.7812 15.75 12 15.5 12H1C0.4375 12 0 11.5625 0 11V0.5C0 0.25 0.21875 0 0.5 0H1.5C1.75 0 2 0.25 2 0.5V10H15.5ZM14.5 1C14.75 1 15 1.25 14.9688 1.5V5.21875C14.9688 5.875 14.1875 6.21875 13.7188 5.75L12.6875 4.71875L9.6875 7.71875C9.3125 8.125 8.65625 8.125 8.28125 7.71875L6 5.4375L4.53125 6.875C4.34375 7.0625 4.03125 7.0625 3.84375 6.875L3.125 6.15625C2.9375 5.96875 2.9375 5.65625 3.125 5.46875L5.28125 3.3125C5.65625 2.90625 6.3125 2.90625 6.6875 3.3125L9 5.59375L11.2812 3.3125L10.25 2.28125C9.78125 1.8125 10.125 1 10.7812 1H14.5Z" fill="#2563eb"/>
</svg>