<svg width="24" height="22" viewBox="0 0 24 22" fill="none" xmlns="http://www.w3.org/2000/svg">
<path d="M16.741 6.28223C16.8755 7.00737 16.9221 7.78641 16.8725 8.53585C23.7409 9.48744 23.2585 19.2922 16.2926 19.5319C14.1943 19.5562 12.1899 18.2709 11.3085 16.3742C10.6229 16.666 9.89505 16.8765 9.13617 16.9935C10.2917 19.8315 13.2142 21.8086 16.2927 21.7676C26.3018 21.4002 26.6784 7.20952 16.741 6.28223Z" fill="#4B5563"/>
<path d="M12.5599 15.7236C13.205 17.1598 14.7113 18.1415 16.2927 18.1225C21.5086 17.9398 21.8244 10.5844 16.6738 9.93311C16.132 12.369 14.6171 14.4427 12.5599 15.7236Z" fill="#4B5563"/>
<path d="M7.73261 0.231445C3.46173 0.231445 0 3.69317 0 7.96359C0 12.234 3.46173 15.6962 7.73261 15.6962C12.003 15.6962 15.4648 12.234 15.4648 7.96359C15.4648 3.69317 12.003 0.231445 7.73261 0.231445ZM11.2733 5.05399H8.57749C8.98066 5.54973 9.26025 6.15073 9.3749 6.81469H11.2733V8.22438H9.36409C9.12962 9.45551 8.31388 10.4836 7.20116 11.0146C7.77584 11.3717 9.24051 12.2819 9.79593 12.6273C9.61032 12.9257 9.23722 13.5262 9.05161 13.8246L4.80892 11.1871V9.98508H5.51376C6.6387 9.9832 7.59306 9.25346 7.91352 8.22438H4.72105V6.81469H7.9295C7.66636 5.88336 6.87411 5.19402 5.88075 5.07279L5.87276 5.05399H4.66842V3.6443H11.2733V5.05399Z" fill="#4B5563"/>
</svg>
