<svg width="14" height="15" viewBox="0 0 14 15" fill="none" xmlns="http://www.w3.org/2000/svg">
<path d="M7 7.75C5.05859 7.75 3.5 6.19141 3.5 4.25C3.5 2.33594 5.05859 0.75 7 0.75C8.91406 0.75 10.5 2.33594 10.5 4.25C10.5 6.19141 8.91406 7.75 7 7.75ZM9.59766 8.65234C11.5664 8.73438 13.125 10.3477 13.125 12.3164V13.4375C13.125 14.1758 12.5234 14.75 11.8125 14.75H2.1875C1.44922 14.75 0.875 14.1758 0.875 13.4375V12.3164C0.875 10.3477 2.40625 8.73438 4.375 8.65234L5.6875 13.875L6.5625 10.1562L5.6875 8.625H8.3125L7.4375 10.1562L8.3125 13.875L9.59766 8.65234Z" fill="#4B5563"/>
</svg>
