<svg width="27" height="27" viewBox="0 0 27 27" fill="none" xmlns="http://www.w3.org/2000/svg">
<g clip-path="url(#clip0_3357_56520)">
<path d="M24.5254 11.5087C25.0392 14.0302 24.6731 16.6516 23.488 18.9357C22.303 21.2199 20.3707 23.0288 18.0134 24.0607C15.6561 25.0926 13.0163 25.2852 10.5342 24.6064C8.05204 23.9275 5.87766 22.4183 4.37363 20.3303C2.8696 18.2423 2.12683 15.7019 2.26919 13.1325C2.41155 10.5632 3.43043 8.12032 5.15593 6.21128C6.88142 4.30225 9.20922 3.04245 11.7511 2.64198C14.2931 2.2415 16.8954 2.72456 19.1243 4.01059" stroke="white" stroke-width="3" stroke-linecap="round" stroke-linejoin="round"/>
<path d="M10.125 12.6338L13.5 16.0088L24.75 4.75879" stroke="white" stroke-width="3" stroke-linecap="round" stroke-linejoin="round"/>
</g>
<defs>
<clipPath id="clip0_3357_56520">
<rect width="27" height="27" fill="white"/>
</clipPath>
</defs>
</svg>
