<svg width="401" height="165" viewBox="0 0 401 165" fill="none" xmlns="http://www.w3.org/2000/svg">
<rect opacity="0.100655" y="20.5381" width="400.438" height="143.767" rx="24" fill="#3F8CFF"/>
<mask id="mask0_3341_35487" style="mask-type:luminance" maskUnits="userSpaceOnUse" x="0" y="20" width="401" height="145">
<rect y="20.5381" width="400.438" height="143.767" rx="15" fill="white"/>
</mask>
<g mask="url(#mask0_3341_35487)">
<path fill-rule="evenodd" clip-rule="evenodd" d="M351.545 151.901C353.409 151.531 358.438 147.64 362.537 136.896C364.877 130.758 371.478 99.1081 362.537 96.8857C353.595 94.6621 355.272 110.593 355.272 125.226C355.272 134.148 351.545 151.901 351.545 151.901Z" fill="#BFD9FF"/>
<path fill-rule="evenodd" clip-rule="evenodd" d="M347.448 153.383C352.15 153.071 351.173 105.776 351.545 94.662C351.919 83.5476 354.154 42.0551 347.82 35.3867C341.486 28.7183 334.967 34.6463 334.408 43.2592C334.143 47.3426 335.526 77.0649 336.271 85.5855C337.017 94.1061 337.948 113.371 338.692 125.597C339.438 137.822 341.859 153.753 347.448 153.383Z" fill="#BFD9FF"/>
<path fill-rule="evenodd" clip-rule="evenodd" d="M338.692 153.937C338.692 153.937 328.254 133.46 325.653 117.631C320.996 89.2899 320.065 61.6901 326.399 62.0603C332.731 62.4318 333.19 90.2198 333.477 102.072C334.221 132.822 341.486 152.085 341.486 152.085L338.692 153.937Z" fill="#BFD9FF"/>
<path fill-rule="evenodd" clip-rule="evenodd" d="M339.568 153.099L340.052 152.926C340.015 152.824 336.337 142.673 333.905 135.885C329.132 122.556 328.339 104.832 328.332 104.655L327.818 104.677C327.825 104.855 328.621 122.653 333.421 136.057C335.853 142.846 339.531 152.998 339.568 153.099Z" fill="#1B54AA"/>
<path fill-rule="evenodd" clip-rule="evenodd" d="M345.886 150.233H346.401C346.401 143.909 345.293 125.398 345.283 125.211L344.77 125.243C344.78 125.428 345.886 143.924 345.886 150.233Z" fill="#1B54AA"/>
<path fill-rule="evenodd" clip-rule="evenodd" d="M353.366 151.721C353.405 151.626 357.311 142.159 359.526 133.627C361.745 125.072 361.215 116.955 361.209 116.874L360.696 116.909C360.702 116.989 361.226 125.028 359.028 133.498C356.822 141.996 352.93 151.432 352.892 151.526L353.366 151.721Z" fill="#1B54AA"/>
<path fill-rule="evenodd" clip-rule="evenodd" d="M343.349 125.598C343.349 126.365 343.976 126.986 344.747 126.986C345.518 126.986 346.144 126.365 346.144 125.598C346.144 124.83 345.518 124.208 344.747 124.208C343.976 124.208 343.349 124.83 343.349 125.598Z" fill="#FFFFFE"/>
<path fill-rule="evenodd" clip-rule="evenodd" d="M359.556 117.076C359.556 117.844 360.181 118.466 360.952 118.466C361.725 118.466 362.35 117.844 362.35 117.076C362.35 116.309 361.725 115.688 360.952 115.688C360.181 115.688 359.556 116.309 359.556 117.076Z" fill="#FFFFFE"/>
<path fill-rule="evenodd" clip-rule="evenodd" d="M326.678 104.665C326.678 105.433 327.303 106.055 328.075 106.055C328.846 106.055 329.472 105.433 329.472 104.665C329.472 103.898 328.846 103.276 328.075 103.276C327.303 103.276 326.678 103.898 326.678 104.665Z" fill="#FFFFFE"/>
<mask id="mask1_3341_35487" style="mask-type:luminance" maskUnits="userSpaceOnUse" x="335" y="147" width="23" height="29">
<path fill-rule="evenodd" clip-rule="evenodd" d="M357.319 147.641H335.714L339.479 175.185H353.554L357.319 147.641Z" fill="white"/>
</mask>
<g mask="url(#mask1_3341_35487)">
<path fill-rule="evenodd" clip-rule="evenodd" d="M335.714 152.179H357.319V149.955H335.714V152.179Z" fill="#FADFDC"/>
</g>
<path fill-rule="evenodd" clip-rule="evenodd" d="M358.151 147.19H335.712L339.622 175.43H354.241L358.151 147.19Z" fill="#3F8CFF"/>
<mask id="mask2_3341_35487" style="mask-type:luminance" maskUnits="userSpaceOnUse" x="335" y="147" width="24" height="29">
<path fill-rule="evenodd" clip-rule="evenodd" d="M358.151 147.19H335.712L339.622 175.43H354.241L358.151 147.19Z" fill="white"/>
</mask>
<g mask="url(#mask2_3341_35487)">
<path fill-rule="evenodd" clip-rule="evenodd" d="M332.26 151.214H358.151V150.868H332.26V151.214Z" fill="#CFE0FF"/>
</g>
<path fill-rule="evenodd" clip-rule="evenodd" d="M39.3207 179.708H40.0767V128.363H39.3207V179.708Z" fill="#233862"/>
<path fill-rule="evenodd" clip-rule="evenodd" d="M51.4021 172.007H52.1598V42.7881H51.4021V172.007Z" fill="#233862"/>
<path fill-rule="evenodd" clip-rule="evenodd" d="M45.3617 178.853H46.1177V83.8643H45.3617V178.853Z" fill="#233862"/>
<path fill-rule="evenodd" clip-rule="evenodd" d="M63.4842 164.305H64.2419V65.8936H63.4842V164.305Z" fill="#233862"/>
<path fill-rule="evenodd" clip-rule="evenodd" d="M57.444 172.863H58.2V40.2207H57.444V172.863Z" fill="#233862"/>
<path fill-rule="evenodd" clip-rule="evenodd" d="M32.7947 169.44C32.7947 159.042 41.2959 150.613 51.7816 150.613C62.2674 150.613 70.7673 159.042 70.7673 169.44C70.7673 179.838 62.2674 188.266 51.7816 188.266C41.2959 188.266 32.7947 179.838 32.7947 169.44Z" fill="#FDC748"/>
<path fill-rule="evenodd" clip-rule="evenodd" d="M39.4858 148.901H64.0746C65.388 148.901 66.4521 150.299 66.4521 152.022V156.906C66.4521 158.629 65.388 160.026 64.0746 160.026H39.4858C38.1724 160.026 37.1096 158.629 37.1096 156.906V152.022C37.1096 150.299 38.1724 148.901 39.4858 148.901Z" fill="#FDC748"/>
<path fill-rule="evenodd" clip-rule="evenodd" d="M37.2461 155.67H66.3391V155.108H37.2461V155.67Z" fill="white" fill-opacity="0.757567"/>
<path fill-rule="evenodd" clip-rule="evenodd" d="M45.9025 39.1368C45.282 41.5412 44.6343 43.9302 43.69 46.2349C43.997 45.5161 44.3053 44.7972 44.6136 44.0783C44.5372 44.2532 44.4594 44.4294 44.383 44.6056C43.3622 46.9449 42.7443 48.9981 43.4594 51.5633C44.0902 53.8208 45.6227 55.7783 47.6694 56.9606C49.7861 58.1813 52.3652 58.512 54.7292 57.871C56.7824 57.3143 59.3214 55.7438 60.2048 53.7199C61.6103 50.4984 62.6958 47.3305 63.5702 43.9378C64.8008 39.17 62.0533 34.1532 57.1723 32.8291C52.4312 31.5433 47.1331 34.3677 45.9025 39.1368Z" fill="#87B7FF"/>
<path fill-rule="evenodd" clip-rule="evenodd" d="M17.104 124.09C18.8412 129.208 22.299 133.508 26.3819 136.979C30.1382 140.171 36.4068 138.382 38.9819 134.668C42.0015 130.315 40.3988 125.357 36.6528 122.173C38.636 123.859 36.5657 121.952 36.1877 121.516C35.8533 121.13 34.2366 118.713 35.5523 120.781C34.6504 119.364 33.9483 117.827 33.4102 116.241C31.8331 111.59 25.3135 110.152 21.3009 112.08C16.439 114.417 15.5307 119.452 17.104 124.09Z" fill="#87B7FF"/>
<path fill-rule="evenodd" clip-rule="evenodd" d="M37.2773 89.0115C37.2493 92.2802 36.6149 95.4484 36.0275 98.6513C35.276 102.756 35.1654 106.726 35.7846 110.874C36.5195 115.795 41.8557 118.896 46.4418 117.913C51.4474 116.84 54.1136 112.015 53.38 107.101C53.2236 105.95 53.1893 105.774 53.2795 106.572C53.2694 105.918 53.2872 105.265 53.3317 104.612C53.4079 102.983 53.7042 101.362 53.9839 99.7594C54.5433 96.5461 55.2045 93.396 55.2325 90.1183C55.2757 85.1506 51.8784 80.7661 46.8003 80.4565C42.1024 80.1688 37.3205 84.0374 37.2773 89.0115Z" fill="#87B7FF"/>
<path fill-rule="evenodd" clip-rule="evenodd" d="M61.5788 71.5436C62.2123 72.7445 62.8247 73.9541 63.4147 75.1751C63.6707 75.7063 63.9162 76.2425 64.1617 76.7787C63.0398 74.328 64.163 76.8215 64.3715 77.33C65.2941 79.5832 66.3988 81.3857 68.6622 82.6507C70.8175 83.8553 73.4452 84.18 75.8539 83.5482C80.3755 82.3612 84.2267 77.1236 82.3737 72.5972C80.9761 69.1848 79.424 65.8303 77.699 62.5576C75.4144 58.225 69.107 57.0292 64.9285 59.3642C60.3369 61.9295 59.2942 67.2086 61.5788 71.5436Z" fill="#87B7FF"/>
<path fill-rule="evenodd" clip-rule="evenodd" d="M66.9558 96.0727C66.3209 97.0804 65.6391 98.0521 64.9216 98.9992C65.3902 98.3837 65.8575 97.7682 66.326 97.1527C65.8194 97.8095 65.2988 98.4559 64.768 99.0934C63.1757 101.001 62.137 102.97 62.137 105.546C62.137 107.957 63.0906 110.295 64.768 111.998C66.4441 113.703 68.745 114.672 71.117 114.672C73.3251 114.672 75.993 113.766 77.4672 111.998C79.25 109.863 80.9782 107.647 82.4639 105.284C85.1025 101.088 83.3375 95.2365 79.2424 92.7991C74.8921 90.2093 69.5856 91.8894 66.9558 96.0727Z" fill="#87B7FF"/>
<path fill-rule="evenodd" clip-rule="evenodd" d="M59.1371 139.455C61.2613 139.616 63.3816 139.17 65.4749 138.879C64.6709 138.988 63.8657 139.097 63.0605 139.207C64.0442 139.078 65.0074 138.995 66.0001 139.046C70.9483 139.299 75.0823 134.677 75.0823 129.862C75.0823 124.665 70.9432 120.931 66.0001 120.679C63.8824 120.571 61.7673 121.015 59.6791 121.301C60.4843 121.192 61.2895 121.082 62.0935 120.972C61.102 121.097 60.1363 121.163 59.1371 121.086C54.1941 120.712 50.0549 125.548 50.0549 130.271C50.0549 135.56 54.203 139.081 59.1371 139.455Z" fill="#87B7FF"/>
<path fill-rule="evenodd" clip-rule="evenodd" d="M52.644 49.6341C52.644 50.1066 52.2575 50.4898 51.781 50.4898C51.3045 50.4898 50.918 50.1066 50.918 49.6341C50.918 49.1616 51.3045 48.7783 51.781 48.7783C52.2575 48.7783 52.644 49.1616 52.644 49.6341Z" fill="#FFFFFE"/>
<path fill-rule="evenodd" clip-rule="evenodd" d="M65.5891 67.6042C65.5891 68.077 65.2026 68.4605 64.7261 68.4605C64.2495 68.4605 63.863 68.077 63.863 67.6042C63.863 67.1314 64.2495 66.749 64.7261 66.749C65.2026 66.749 65.5891 67.1314 65.5891 67.6042Z" fill="#FFFFFE"/>
<path fill-rule="evenodd" clip-rule="evenodd" d="M52.644 94.9886C52.644 95.4611 52.2584 95.8443 51.7815 95.8443C51.3047 95.8443 50.918 95.4611 50.918 94.9886C50.918 94.5161 51.3047 94.1328 51.7815 94.1328C52.2584 94.1328 52.644 94.5161 52.644 94.9886Z" fill="#FFFFFE"/>
<path fill-rule="evenodd" clip-rule="evenodd" d="M75.9453 103.546C75.9453 104.019 75.5588 104.402 75.0823 104.402C74.6057 104.402 74.2192 104.019 74.2192 103.546C74.2192 103.074 74.6057 102.69 75.0823 102.69C75.5588 102.69 75.9453 103.074 75.9453 103.546Z" fill="#FFFFFE"/>
<path fill-rule="evenodd" clip-rule="evenodd" d="M69.9043 130.931C69.9043 131.403 69.5186 131.787 69.0418 131.787C68.565 131.787 68.1782 131.403 68.1782 130.931C68.1782 130.458 68.565 130.075 69.0418 130.075C69.5186 130.075 69.9043 130.458 69.9043 130.931Z" fill="#FFFFFE"/>
<path fill-rule="evenodd" clip-rule="evenodd" d="M28.4649 125.641C28.5516 126.105 28.2419 126.552 27.774 126.638C27.3051 126.723 26.8548 126.417 26.768 125.952C26.6812 125.487 26.9909 125.041 27.4599 124.955C27.9289 124.869 28.3792 125.176 28.4649 125.641Z" fill="#FFFFFE"/>
</g>
<path fill-rule="evenodd" clip-rule="evenodd" d="M120.693 156.486V125.235C120.693 119.737 131.939 115.278 145.806 115.278H202.593C216.465 115.278 227.706 119.737 227.706 125.235V157.68L120.693 156.486Z" fill="#B0D4FF"/>
<path fill-rule="evenodd" clip-rule="evenodd" d="M200.151 4.37486C193.439 0.868188 183.222 0.394104 181.565 0.172574C161.707 -2.48094 149.755 26.2128 149.053 34.9092C147.757 50.935 139.231 53.3781 127.236 63.4124C103.176 83.5392 110.229 106.923 123.385 115.61C131.281 120.826 145.193 115.61 145.193 115.61C145.388 115.746 183.242 94.5672 201.901 84.3487C229.874 80.3932 217.255 13.3088 200.151 4.37486Z" fill="#233862"/>
<path fill-rule="evenodd" clip-rule="evenodd" d="M171.047 75.7562C165.18 73.223 160.741 63.8086 160.824 63.8038C163.493 63.6841 167.421 59.9923 169.678 45.0518L170.186 45.4072L188.914 53.5753C188.914 53.5753 187.53 59.5563 186.633 65.25C185.882 70.0338 185.475 74.6165 186.52 75.2917C186.603 75.3444 177.278 78.4474 171.047 75.7562Z" fill="#FFB27D"/>
<path fill-rule="evenodd" clip-rule="evenodd" d="M188.914 53.1468C188.914 53.1468 187.557 59.1821 186.677 64.9275C175.92 62.985 171.697 52.219 170.186 46.377L188.914 53.1468Z" fill="#ED975D"/>
<path fill-rule="evenodd" clip-rule="evenodd" d="M169.009 38.943C171.454 23.0319 169.714 11.8702 186.584 13.3892C203.453 14.913 205.77 21.4601 206.278 26.964C206.785 32.468 199.716 58.7765 192.825 58.2958C192.825 58.2958 166.564 54.854 169.009 38.943Z" fill="#FFB27D"/>
<path fill-rule="evenodd" clip-rule="evenodd" d="M177.495 35.5462C166.37 36.7188 162.16 33.0327 162.16 33.0327C162.16 33.0327 168.715 27.4171 172.662 18.3528C173.822 15.681 176.721 13.5032 179.55 13.2509C187.491 12.5434 202.103 12.5689 204.966 19.8371C204.966 19.8371 188.615 34.3736 177.495 35.5462Z" fill="#233862"/>
<path fill-rule="evenodd" clip-rule="evenodd" d="M201.551 27.0335C203.231 30.8806 204.101 40.24 202.761 43.8923C202.761 43.8923 211.032 26.8972 206.141 18.7209C200.958 10.0479 194.264 17.6788 194.264 17.6788C194.264 17.6788 199.802 23.0501 201.551 27.0335Z" fill="#233862"/>
<path fill-rule="evenodd" clip-rule="evenodd" d="M203.023 159.214C201.636 160.387 197.749 161.089 192.635 161.418C176.543 162.468 148.263 159.867 147.188 156.952C143.475 146.866 146.098 143.731 143.003 128.287C142.677 126.646 142.278 124.867 141.811 122.93C139.227 112.323 136.717 108.716 145.874 91.6741C154.18 76.2397 162.177 63.1607 162.956 63.614C184.866 76.3671 186.476 67.0502 186.476 67.0502C186.476 67.0502 209.358 88.5395 208.974 113.635C208.191 165.082 208.76 154.328 203.023 159.214Z" fill="white"/>
<path fill-rule="evenodd" clip-rule="evenodd" d="M148.76 156.967C145.012 146.725 146.557 142.194 143.433 126.511L151.989 106.003C151.989 106.003 150.697 130.233 157.938 136.605C165.179 142.976 187.598 148.907 191.12 154.231C192.82 156.79 193.94 159.348 194.264 161.407C178.019 162.473 149.846 159.928 148.76 156.967Z" fill="#EBF3FF"/>
<path fill-rule="evenodd" clip-rule="evenodd" d="M174.199 151.074C174.199 151.074 190.066 147.236 192.624 148.764C195.182 150.297 201.437 155.87 202.225 157.811C203.008 159.751 196.525 156.336 194.414 155.722C193.052 155.326 189.453 156.679 187.677 157.324C180.187 160.042 175.6 158.646 175.6 158.646L174.199 151.074Z" fill="#FFB27D"/>
<path fill-rule="evenodd" clip-rule="evenodd" d="M135.253 74.1886C124.929 88.3754 104.455 148.83 116.191 156.898C129.407 165.976 176.331 159.271 176.331 159.271C176.331 159.271 177.893 152.08 175.722 148.596C173.546 145.118 138.241 139.499 136.612 137.893C134.982 136.287 156.979 106.575 156.979 101.757C156.979 96.9389 162.955 63.6025 162.955 63.6025C162.955 63.6025 142.584 64.1097 135.253 74.1886Z" fill="white"/>
<path fill-rule="evenodd" clip-rule="evenodd" d="M192.927 153.705C192.927 153.705 196.507 158.079 197.681 158.599C198.855 159.12 199.615 158.991 199.615 158.991L197.204 154.88L192.927 153.705Z" fill="#FFB27D"/>
<path fill-rule="evenodd" clip-rule="evenodd" d="M191.589 149.729L202.29 154.411C202.29 154.411 201.833 155.08 200.519 155.027C199.199 154.973 195.876 153.877 195.876 153.877L191.589 149.729Z" fill="#FFB27D"/>
<path fill-rule="evenodd" clip-rule="evenodd" d="M198.277 164.305H274.372L297.265 107.328H221.286L198.277 164.305Z" fill="#FDC748"/>
<path fill-rule="evenodd" clip-rule="evenodd" d="M274.525 161.655H174.199V164.305H273.635L274.525 161.655Z" fill="#E6B137"/>
<path fill-rule="evenodd" clip-rule="evenodd" d="M254.302 135.814C254.915 133.986 253.684 132.504 251.551 132.504C249.423 132.504 247.202 133.986 246.589 135.814C245.981 137.642 247.212 139.129 249.34 139.129C251.473 139.129 253.694 137.642 254.302 135.814Z" fill="white"/>
</svg>
