<svg width="15" height="22" viewBox="0 0 15 22" fill="none" xmlns="http://www.w3.org/2000/svg">
<path d="M14.532 5.15624L13.8075 7.62784H0.000710253L0.725142 5.15624H14.532ZM8.05469 21.8182L0.256392 12.2727L0.213778 10.4829H4.09162C5.10014 10.4829 5.95952 10.3409 6.66974 10.0568C7.37997 9.76562 7.9233 9.33238 8.29972 8.7571C8.67614 8.17471 8.86435 7.44318 8.86435 6.56249C8.86435 5.26278 8.47372 4.2436 7.69247 3.50497C6.91122 2.75923 5.71094 2.38636 4.09162 2.38636H0.000710253L0.725142 -6.19888e-06H4.09162C5.82457 -6.19888e-06 7.24503 0.287636 8.35298 0.862919C9.46804 1.4311 10.2919 2.21235 10.8246 3.20667C11.3643 4.19389 11.6342 5.31249 11.6342 6.56249C11.6342 7.69176 11.3857 8.73224 10.8885 9.68394C10.3984 10.6285 9.61009 11.3885 8.52344 11.9638C7.44389 12.5391 6.01634 12.8267 4.24077 12.8267H4.17685L11.3786 21.6477V21.8182H8.05469ZM14.532 -6.19888e-06L13.8075 2.47159L2.94105 2.38636L3.66548 -6.19888e-06H14.532Z" fill="white"/>
</svg>
